<svg xmlns="http://www.w3.org/2000/svg" height="91" width="386"><defs><clipPath id="a"><path d="M0 630h810V0H0v630z"/></clipPath></defs><path d="M89.685 30.669H53.76V14.682h51.962l35.418-11.61-59.436 59.572h36.009v15.989H65.752l-35.42 11.214 59.353-59.178z" fill="#f7a41d"/><path d="M11.303 62.645V14.682h.676v-.001h34.869v15.987H27.29v31.977h23.981L35.284 78.632H11.3V62.645h.002zM143.8 30.67h-23.982l15.989-15.988h23.981v63.95h-.676v.001h-34.87V62.646H143.8V30.669z" fill="#f7a41d"/><path d="M197.386 70.486l36.973-44.763h-35.81v-9.757h50.133v8.146L211.71 68.875h36.972v9.758h-51.296v-8.147zm79.138-54.521h10.921v62.668h-10.921V15.965z" fill="#737475"/><g clip-path="url(#a)" transform="matrix(1.25 0 0 -1.25 -313.816 440.209)"><path d="M528.993 288.401c-3.915 0-7.473.657-10.671 1.97-3.199 1.313-5.933 3.127-8.2 5.443-2.269 2.316-4.023 5.037-5.264 8.165-1.242 3.127-1.862 6.528-1.862 10.206v.143c0 3.485.637 6.804 1.912 9.955 1.274 3.152 3.065 5.909 5.372 8.272 2.305 2.364 5.045 4.237 8.222 5.622 3.174 1.385 6.647 2.078 10.42 2.078 2.195 0 4.189-.156 5.98-.466 1.79-.311 3.449-.752 4.978-1.325a25.223 25.223 0 0 0 4.333-2.113 31.968 31.968 0 0 0 3.974-2.9l-5.586-6.661a31.914 31.914 0 0 1-2.936 2.22 18.37 18.37 0 0 1-3.151 1.684 19.54 19.54 0 0 1-3.618 1.074c-1.313.26-2.757.393-4.333.393-2.291 0-4.428-.478-6.409-1.435a16.713 16.713 0 0 1-5.157-3.84c-1.457-1.602-2.603-3.48-3.438-5.633-.836-2.153-1.253-4.425-1.253-6.817v-.143c0-2.584.404-4.977 1.214-7.177.811-2.201 1.965-4.092 3.466-5.67 1.499-1.578 3.285-2.822 5.359-3.731 2.071-.91 4.392-1.364 6.965-1.364 2.381 0 4.607.349 6.68 1.045 2.071.695 3.869 1.619 5.394 2.772v9.433h-12.821v7.664h21.343v-21.056a37.25 37.25 0 0 0-4.118-3.008 30.805 30.805 0 0 0-10.492-4.191 31.856 31.856 0 0 0-6.303-.608" fill="#737475"/></g></svg>